<mxfile host="app.diagrams.net" modified="2023-06-21T20:11:44.386Z" agent="Mozilla/5.0 (Windows NT 10.0; Win64; x64; rv:102.0) Gecko/20100101 Firefox/102.0" version="21.5.0" etag="GHueqQ0uQEttx6lzub4Z" type="github">
  <diagram name="Page-1" id="jnIpRup-OCVgC1eAVAap">
    <mxGraphModel>
      <root>
        <mxCell id="0" />
        <mxCell id="1" parent="0" />
      </root>
    </mxGraphModel>
  </diagram>
</mxfile>
